<svg width="40" height="40" viewBox="0 0 40 40" fill="none" xmlns="http://www.w3.org/2000/svg">
<circle cx="20" cy="20" r="20" fill="#F7F9FC"/>
<path d="M27.5129 18.6961H19.5973V10.7806C19.5973 10.4666 19.3507 10.22 19.0367 10.22C14.0587 10.22 10 14.2787 10 19.2567C10 24.2348 14.0587 28.2935 19.0367 28.2935C24.0148 28.2935 28.0735 24.2348 28.0735 19.2567C28.0735 18.9652 27.8268 18.6961 27.5129 18.6961Z" fill="#007AFC"/>
<path d="M22.2568 7C21.9428 7 21.6962 7.24666 21.6962 7.56059V16.5974H30.7329C31.0469 16.5974 31.2935 16.3507 31.2935 16.0368C31.2935 11.0587 27.2348 7 22.2568 7Z" fill="#007AFC"/>
</svg>
