<svg width="40" height="40" viewBox="0 0 40 40" fill="none" xmlns="http://www.w3.org/2000/svg">
<circle cx="20" cy="20" r="20" fill="#F7F9FC"/>
<path d="M10.0224 13.4094L10 29.7115C10 29.8909 10.0897 30.0703 10.2467 30.1824C10.4036 30.2945 10.6054 30.2945 10.7848 30.2272L16.5029 27.6933V10.1804L10.3588 12.9161C10.157 13.0058 10.0224 13.2076 10.0224 13.4094Z" fill="#007AFC"/>
<path d="M17.624 27.6933L22.9609 30.0927V12.5573L17.624 10.1804V27.6933Z" fill="#007AFC"/>
<path d="M30.3159 10.0908C30.1589 9.97864 29.9571 9.97864 29.7777 10.0459L24.0597 12.5798V30.0927L30.2038 27.357C30.4056 27.2673 30.5401 27.0655 30.5401 26.8413L30.5626 10.5617C30.5626 10.3598 30.4729 10.1805 30.3159 10.0908Z" fill="#007AFC"/>
</svg>
