<svg width="40" height="40" viewBox="0 0 40 40" fill="none" xmlns="http://www.w3.org/2000/svg">
<circle cx="20" cy="20" r="20" fill="#F7F9FC"/>
<path d="M20 9C15.5894 9 12 12.5894 12 17C12 21.2698 19.2493 29.7155 19.5543 30.0674C19.6716 30.1847 19.8358 30.2786 20 30.2786C20.1642 30.2786 20.3284 30.2082 20.4457 30.0674C20.7507 29.7155 28 21.2463 28 17C28 12.5894 24.4105 9 20 9ZM20 19.4868C18.3812 19.4868 17.0674 18.173 17.0674 16.5543C17.0674 14.9355 18.3812 13.6217 20 13.6217C21.6188 13.6217 22.9325 14.9355 22.9325 16.5543C22.9325 18.173 21.6188 19.4868 20 19.4868Z" fill="#007AFC"/>
</svg>
