<svg width="40" height="40" viewBox="0 0 40 40" fill="none" xmlns="http://www.w3.org/2000/svg">
<circle cx="20" cy="20" r="20" fill="#F7F9FC"/>
<path d="M22.8219 19.9828C22.8219 21.5151 21.596 22.7409 20.0637 22.7409C18.5313 22.7409 17.3055 21.481 17.3055 19.9828C17.3055 18.4845 18.5313 17.2246 20.0637 17.2246C21.596 17.2246 22.8219 18.4505 22.8219 19.9828Z" fill="#007AFC"/>
<path d="M33.8212 19.4721C33.7531 19.404 32.2548 17.4971 29.8372 15.5902C26.6023 13.0364 23.1971 11.6743 20.0644 11.6743C16.9317 11.6743 13.5265 13.0364 10.2916 15.5902C7.87399 17.4971 6.37572 19.404 6.30762 19.4721C6.06926 19.7786 6.06926 20.2212 6.30762 20.5277C6.37572 20.5958 7.87399 22.5027 10.2916 24.4096C13.5265 26.9634 16.9317 28.3255 20.0644 28.3255C23.1971 28.3255 26.6023 26.9634 29.8372 24.4096C32.2548 22.5027 33.7531 20.5958 33.8212 20.5277C34.0596 20.2212 34.0596 19.7786 33.8212 19.4721ZM20.0644 24.4777C17.6127 24.4777 15.6037 22.4686 15.6037 20.0169C15.6037 17.5652 17.6127 15.5562 20.0644 15.5562C22.5161 15.5562 24.5252 17.5652 24.5252 20.0169C24.5252 22.4686 22.5502 24.4777 20.0644 24.4777Z" fill="#007AFC"/>
</svg>
